<?xml version="1.0" encoding="utf-8"?>
<!-- Generator: Adobe Illustrator 15.1.0, SVG Export Plug-In . SVG Version: 6.00 Build 0)  -->
<!DOCTYPE svg PUBLIC "-//W3C//DTD SVG 1.1//EN" "http://www.w3.org/Graphics/SVG/1.1/DTD/svg11.dtd">
<svg version="1.1" xmlns="http://www.w3.org/2000/svg" xmlns:xlink="http://www.w3.org/1999/xlink" x="0px" y="0px"
	 width="345.088px" height="122.014px" viewBox="0 0 345.088 122.014" enable-background="new 0 0 345.088 122.014"
	 xml:space="preserve">
<g id="Layer_1">
	<g id="Layer_1_1_">
	</g>
	<g id="Layer_2">
		<path fill="#327B9B" d="M312.224,47.021V15.69c0-5.208-4.223-9.432-9.432-9.432h-92.055c-5.209,0-9.432,4.224-9.432,9.432v31.331
			h-57.523V15.69c0-5.208-4.224-9.432-9.434-9.432H42.297c-5.21,0-9.434,4.224-9.434,9.432v31.331H4.102v26.62h28.762v31.331
			c0,5.209,4.224,9.432,9.434,9.432h92.053c5.21,0,9.434-4.223,9.434-9.432v-31.33h57.522v31.331c0,5.209,4.223,9.432,9.433,9.432
			h92.055c5.209,0,9.433-4.223,9.433-9.432V73.642h28.762v-26.62L312.224,47.021L312.224,47.021z M124.126,89.15
			c0,3.363-2.726,6.09-6.089,6.09H58.611c-3.364,0-6.09-2.727-6.09-6.09V31.514c0-3.363,2.726-6.09,6.09-6.09h59.426
			c3.363,0,6.089,2.727,6.089,6.09V89.15z M292.567,89.15c0,3.363-2.725,6.09-6.09,6.09h-59.426c-3.363,0-6.09-2.727-6.09-6.09
			V31.514c0-3.363,2.727-6.09,6.09-6.09h59.426c3.365,0,6.09,2.727,6.09,6.09V89.15z"/>
		<path fill="#408BB3" d="M337.985,44.296h-28.25V13.522c0-5.115-4.146-9.264-9.264-9.264h-90.414c-5.117,0-9.266,4.147-9.266,9.264
			v30.772h-56.498V13.522c0-5.115-4.147-9.264-9.265-9.264H44.616c-5.117,0-9.265,4.147-9.265,9.264v30.772H7.102v26.146h28.25
			v30.772c0,5.116,4.147,9.265,9.265,9.265h90.414c5.117,0,9.265-4.147,9.265-9.265V70.441h56.498v30.772
			c0,5.116,4.148,9.265,9.266,9.265h90.414c5.117,0,9.264-4.147,9.264-9.265V70.441h28.25V44.296H337.985z M124.988,85.674
			c0,3.305-2.678,5.981-5.98,5.981H60.641c-3.305,0-5.981-2.678-5.981-5.981V29.064c0-3.303,2.677-5.98,5.981-5.98h58.367
			c3.303,0,5.98,2.679,5.98,5.98V85.674z M290.429,85.674c0,3.305-2.676,5.981-5.98,5.981h-58.366c-3.304,0-5.979-2.678-5.979-5.981
			V29.064c0-3.303,2.678-5.98,5.979-5.98h58.366c3.306,0,5.98,2.679,5.98,5.98V85.674z"/>
	</g>
</g>
<g id="Isolation_Mode">
	<circle fill="#3B4A5D" cx="89.099" cy="59.384" r="12.275"/>
	<circle fill="#3B4A5D" cx="255.991" cy="59.384" r="12.275"/>
</g>
</svg>
