<?xml version="1.0" encoding="utf-8"?>
<!-- Generator: Adobe Illustrator 15.1.0, SVG Export Plug-In . SVG Version: 6.00 Build 0)  -->
<!DOCTYPE svg PUBLIC "-//W3C//DTD SVG 1.1//EN" "http://www.w3.org/Graphics/SVG/1.1/DTD/svg11.dtd">
<svg version="1.1" xmlns="http://www.w3.org/2000/svg" xmlns:xlink="http://www.w3.org/1999/xlink" x="0px" y="0px" width="146px"
	 height="108.5px" viewBox="0 0 146 108.5" enable-background="new 0 0 146 108.5" xml:space="preserve">
<g id="Layer_1">
</g>
<g id="Layer_2">
	<g>
		<g>
			<path fill="#FDD3AF" d="M94.234,39.102c-0.363,0.287-0.749,0.433-0.862,0.327C81.439,28.279,69.498,17.141,57.649,5.902
				c-0.116-0.11,0.145-0.39,0.582-0.622c3.035-1.612,4.549-2.417,7.568-4.016c0.438-0.23,0.88-0.329,0.991-0.221
				c11.329,10.839,22.748,21.58,34.165,32.326c0.108,0.103-0.096,0.423-0.457,0.716C98.004,36.107,96.75,37.11,94.234,39.102z"/>
			<path fill="#F8A99F" d="M46.629,74.313c-0.371,0.265-0.785,0.377-0.928,0.248C31.027,61.38,16.178,48.442,1.042,35.793
				c-0.144-0.12,0.094-0.398,0.529-0.621c17.918-9.256,35.714-18.737,53.514-28.218c0.44-0.234,0.889-0.332,1.005-0.22
				C68.03,18.03,80.056,29.233,92.076,40.446c0.114,0.106-0.086,0.423-0.452,0.71C76.842,52.522,61.817,63.498,46.629,74.313z"/>
			<path fill="#F8A99F" d="M104.807,61.627c-0.331,0.31-0.853,0.315-1.167,0.021c-5.082-4.759-7.646-7.153-12.807-11.956
				c-0.319-0.297-0.287-0.771,0.072-1.061c5.276-4.245,7.899-6.401,13.088-10.798c0.352-0.298,0.876-0.318,1.17-0.042
				c4.739,4.485,7.093,6.72,11.757,11.189c0.289,0.276,0.263,0.767-0.062,1.089C112.088,54.8,109.671,57.106,104.807,61.627z"/>
			<path fill="#FDD3AF" d="M144.457,77.928c-0.261,0.356-0.702,0.422-0.981,0.149c-7.877-7.7-15.773-15.381-23.717-23.013
				c-0.29-0.279-0.27-0.77,0.047-1.095c0.216-0.222,0.324-0.332,0.539-0.555c0.316-0.327,0.808-0.37,1.093-0.095
				c7.859,7.571,15.663,15.199,23.436,22.859c0.275,0.272,0.286,0.78,0.026,1.14C144.721,77.563,144.633,77.686,144.457,77.928z"/>
			<path fill="#FDD3AF" d="M135.194,89.93c-0.267,0.328-0.729,0.371-1.03,0.096c-8.581-7.874-17.103-15.808-25.604-23.768
				c-0.312-0.294-0.304-0.781,0.021-1.094c0.219-0.213,0.326-0.319,0.545-0.531c0.322-0.313,0.835-0.328,1.144-0.038
				c8.417,7.92,16.843,15.827,25.317,23.685c0.299,0.275,0.324,0.767,0.058,1.096C135.462,89.598,135.375,89.708,135.194,89.93z"/>
			<path fill="#FDD3AF" d="M139.844,84.057c-0.264,0.341-0.713,0.397-1.004,0.124c-8.231-7.804-16.437-15.637-24.653-23.456
				c-0.301-0.286-0.288-0.776,0.031-1.096c0.218-0.217,0.327-0.325,0.545-0.543c0.318-0.318,0.82-0.348,1.118-0.063
				c8.131,7.771,16.245,15.56,24.372,23.336c0.287,0.274,0.303,0.773,0.04,1.116C140.114,83.709,140.023,83.825,139.844,84.057z"/>
			<path fill="#F8A99F" d="M86.342,78.188c-0.334,0.29-0.89,0.273-1.239-0.043c-5.644-5.084-8.484-7.671-14.202-12.855
				c-0.354-0.321-0.347-0.809,0.014-1.082c5.353-4.06,8.024-6.107,13.335-10.281c0.359-0.283,0.919-0.268,1.248,0.037
				c5.313,4.908,7.951,7.355,13.187,12.204c0.324,0.301,0.314,0.788-0.016,1.087C93.766,71.689,91.298,73.862,86.342,78.188z"/>
			<path fill="#FDD3AF" d="M129.789,96.41c-0.267,0.313-0.741,0.348-1.058,0.076c-9.004-7.893-17.875-15.909-26.703-23.998
				c-0.325-0.3-0.325-0.792-0.001-1.096c0.222-0.209,0.331-0.313,0.553-0.522c0.323-0.303,0.85-0.307,1.171-0.01
				c8.741,8.058,17.521,16.056,26.412,23.948c0.313,0.272,0.348,0.752,0.081,1.065C130.06,96.087,129.972,96.195,129.789,96.41z"/>
			<path fill="#FDD3AF" d="M120.308,107.121c-0.27,0.297-0.767,0.331-1.108,0.07c-9.784-7.803-19.245-15.86-28.631-24.139
				c-0.347-0.311-0.362-0.805-0.035-1.101c0.225-0.203,0.335-0.305,0.561-0.509c0.328-0.297,0.874-0.288,1.218,0.02
				c9.301,8.252,18.676,16.31,28.34,24.134c0.337,0.262,0.392,0.716,0.12,1.014C120.586,106.814,120.494,106.917,120.308,107.121z"
				/>
			<path fill="#FDD3AF" d="M125.063,101.832c-0.271,0.307-0.754,0.336-1.083,0.068c-9.387-7.865-18.56-15.913-27.666-24.101
				c-0.336-0.305-0.348-0.797-0.02-1.098c0.223-0.205,0.336-0.306,0.559-0.51c0.326-0.302,0.861-0.297,1.194,0.006
				c9.021,8.162,18.105,16.202,27.375,24.08c0.325,0.269,0.369,0.729,0.1,1.035C125.338,101.521,125.247,101.625,125.063,101.832z"
				/>
			<path fill="#F8A99F" d="M68.234,93.907c-0.34,0.298-0.926,0.266-1.308-0.071c-6.159-5.463-9.251-8.283-15.472-13.913
				c-0.385-0.35-0.402-0.85-0.037-1.122c5.38-4.005,8.069-5.996,13.433-10.021c0.363-0.271,0.951-0.227,1.312,0.101
				c5.846,5.279,8.75,7.918,14.522,13.083c0.357,0.319,0.375,0.815,0.037,1.107C75.747,87.381,73.25,89.52,68.234,93.907z"/>
			<path fill="#E5B088" d="M75.997,18.216c-0.405,0.256-0.988,0.228-1.297-0.063c-4.25-3.99-6.381-5.996-10.644-10.055
				c-0.311-0.295-0.209-0.728,0.22-0.965c0.66-0.365,0.987-0.545,1.646-0.908c0.431-0.237,1.025-0.191,1.331,0.101
				c4.198,4.011,6.296,5.992,10.479,9.93c0.304,0.287,0.225,0.727-0.182,0.982C76.931,17.629,76.619,17.825,75.997,18.216z"/>
			<path fill="#E5B088" d="M92.293,33.484c-0.37,0.282-0.767,0.427-0.878,0.322c-1.544-1.447-2.32-2.17-3.87-3.62
				c-0.112-0.104,0.109-0.419,0.489-0.694c0.583-0.42,0.871-0.632,1.453-1.055c0.38-0.277,0.777-0.411,0.888-0.307
				c1.524,1.431,2.287,2.141,3.807,3.568c0.11,0.104-0.098,0.421-0.469,0.704C93.146,32.837,92.863,33.051,92.293,33.484z"/>
		</g>
	</g>
</g>
</svg>
