<?xml version="1.0" encoding="utf-8"?>
<!-- Generator: Adobe Illustrator 15.1.0, SVG Export Plug-In . SVG Version: 6.00 Build 0)  -->
<!DOCTYPE svg PUBLIC "-//W3C//DTD SVG 1.1//EN" "http://www.w3.org/Graphics/SVG/1.1/DTD/svg11.dtd">
<svg version="1.1" xmlns="http://www.w3.org/2000/svg" xmlns:xlink="http://www.w3.org/1999/xlink" x="0px" y="0px"
	 width="169.333px" height="138.833px" viewBox="0 0 169.333 138.833" enable-background="new 0 0 169.333 138.833"
	 xml:space="preserve">
<g id="Layer_1">
</g>
<g id="Layer_5">
	
		<polygon fill="#F8A99F" stroke="#F8A99F" stroke-width="2" stroke-linecap="round" stroke-linejoin="round" stroke-miterlimit="10" points="
		36.503,1.667 17.073,56.707 153.409,107.181 167.371,72.868 	"/>
	
		<polygon fill="#F8A99F" stroke="#F8A99F" stroke-width="2" stroke-linecap="round" stroke-linejoin="round" stroke-miterlimit="10" points="
		19.018,103.375 2.221,98.778 11.812,71.135 28.454,76.649 	"/>
	
		<polygon fill="#F8A99F" stroke="#F8A99F" stroke-width="2" stroke-linecap="round" stroke-linejoin="round" stroke-miterlimit="10" points="
		94.808,124.122 74.514,118.566 82.938,94.701 102.864,101.302 	"/>
	
		<polygon fill="#FDD3AF" stroke="#FDD3AF" stroke-width="2" stroke-linecap="round" stroke-linejoin="round" stroke-miterlimit="10" points="
		70.76,94.701 31.721,82.902 33.355,78.273 72.101,91.11 	"/>
	
		<polygon fill="#FDD3AF" stroke="#FDD3AF" stroke-width="2" stroke-linecap="round" stroke-linejoin="round" stroke-miterlimit="10" points="
		67.032,105.261 27.556,94.701 29.174,90.115 68.259,101.787 	"/>
	
		<polygon fill="#FDD3AF" stroke="#FDD3AF" stroke-width="2" stroke-linecap="round" stroke-linejoin="round" stroke-miterlimit="10" points="
		63.409,115.527 24.039,104.663 25.734,99.862 65.051,110.874 	"/>
	
		<polygon fill="#FDD3AF" stroke="#FDD3AF" stroke-width="2" stroke-linecap="round" stroke-linejoin="round" stroke-miterlimit="10" points="
		148.284,119.779 107.177,107.181 108.568,103.192 149.513,116.757 	"/>
	
		<polygon fill="#FDD3AF" stroke="#FDD3AF" stroke-width="2" stroke-linecap="round" stroke-linejoin="round" stroke-miterlimit="10" points="
		144.863,128.186 103.863,116.57 105.658,111.485 146.517,124.122 	"/>
	
		<polygon fill="#FDD3AF" stroke="#FDD3AF" stroke-width="2" stroke-linecap="round" stroke-linejoin="round" stroke-miterlimit="10" points="
		141.335,136.857 100.634,125.716 102.49,120.458 143.139,132.423 	"/>
</g>
</svg>
